<?xml version="1.0" encoding="iso-8859-1"?>
<!-- Uploaded to: SVG Repo, www.svgrepo.com, Generator: SVG Repo Mixer Tools -->
<!DOCTYPE svg PUBLIC "-//W3C//DTD SVG 1.1//EN" "http://www.w3.org/Graphics/SVG/1.1/DTD/svg11.dtd">
<svg fill="#000000" height="800px" width="800px" version="1.1" id="Capa_1" xmlns="http://www.w3.org/2000/svg" xmlns:xlink="http://www.w3.org/1999/xlink" 
	 viewBox="0 0 460.001 460.001" xml:space="preserve">
<g>
	<path d="M459.936,247.14l-18.58-125.52c-0.436-2.942-2.961-5.122-5.936-5.122H172v-8.997h3c3.313,0,6-2.687,6-6v-24
		c0-3.313-2.687-6-6-6h-44c-3.313,0-6,2.687-6,6v24c0,3.313,2.687,6,6,6h3v8.997H24.58c-2.974,0-5.5,2.179-5.936,5.122L0.065,247.14
		c-0.255,1.726,0.253,3.477,1.393,4.798c1.14,1.321,2.798,2.08,4.542,2.08h18.77v128.48c0,3.313,2.687,6,6,6h398.46
		c3.313,0,6-2.687,6-6v-128.48h18.771c1.745,0,3.403-0.759,4.543-2.08C459.683,250.617,460.191,248.866,459.936,247.14z M137,83.502
		h32v12h-32V83.502z M160,108.499v37h-14v-37H160z M36.77,254.019h99.169l-6.597,7.991c-2.11,2.556-1.748,6.337,0.807,8.447
		c2.557,2.11,6.338,1.749,8.447-0.807l5.404-6.547v113.396H36.77V254.019z M230,158.923l74,89.643v127.932H156V248.566L230,158.923z
		 M423.23,376.499H316.001V263.103l5.404,6.547c1.187,1.437,2.901,2.181,4.63,2.18c1.346,0,2.698-0.45,3.816-1.373
		c2.556-2.109,2.917-5.891,0.808-8.447l-6.597-7.991h99.168V376.499z M429.23,242.019H314.156l-79.529-96.34
		c-1.141-1.38-2.837-2.18-4.627-2.18s-3.487,0.8-4.627,2.18l-79.529,96.34H30.77H12.954l16.804-113.52H134v23c0,3.313,2.687,6,6,6
		h26c3.313,0,6-2.687,6-6v-23h258.244l16.804,113.52H429.23z"/>
	<path d="M119.75,286.499h-58c-3.313,0-6,2.687-6,6v38c0,3.313,2.687,6,6,6h58c3.313,0,6-2.687,6-6v-38
		C125.75,289.185,123.064,286.499,119.75,286.499z M113.75,305.499h-17v-7h17V305.499z M84.75,298.499v7h-17v-7H84.75z
		 M67.75,317.499h17v7h-17V317.499z M96.75,324.499v-7h17v7H96.75z"/>
	<path d="M340.251,336.499h58c3.313,0,6-2.687,6-6v-38c0-3.313-2.687-6-6-6h-58c-3.313,0-6,2.687-6,6v38
		C334.251,333.812,336.937,336.499,340.251,336.499z M346.251,317.499h17v7h-17V317.499z M375.251,324.499v-7h17v7H375.251z
		 M392.251,305.499h-17v-7h17V305.499z M363.251,298.499v7h-17v-7H363.251z"/>
	<path d="M172.382,334.499h44.237c3.313,0,6-2.687,6-6v-38c0-3.313-2.687-6-6-6h-44.237c-3.313,0-6,2.687-6,6v38
		C166.382,331.812,169.068,334.499,172.382,334.499z M178.382,315.499H188.5v7h-10.119V315.499z M200.5,322.499v-7h10.119v7H200.5z
		 M210.619,303.499H200.5v-7h10.119V303.499z M188.5,296.499v7h-10.119v-7H188.5z"/>
	<path d="M236.382,290.499v38c0,3.313,2.687,6,6,6h44.237c3.313,0,6-2.687,6-6v-38c0-3.313-2.687-6-6-6h-44.237
		C239.068,284.499,236.382,287.185,236.382,290.499z M248.382,315.499h10.119v7h-10.119V315.499z M270.501,322.499v-7h10.118v7
		H270.501z M280.619,303.499h-10.118v-7h10.118V303.499z M258.501,296.499v7h-10.119v-7H258.501z"/>
	<path d="M99.72,147.499H77.544c-3.017,0-5.565,2.24-5.951,5.233l-5.544,43c-0.221,1.711,0.306,3.434,1.445,4.729
		s2.781,2.038,4.506,2.038h27.72c3.313,0,6-2.687,6-6v-43C105.72,150.185,103.033,147.499,99.72,147.499z M93.72,190.499H78.823
		l3.997-31h10.9V190.499z"/>
	<path d="M388.408,152.732c-0.386-2.993-2.934-5.233-5.951-5.233h-22.176c-3.313,0-6,2.687-6,6v43c0,3.313,2.687,6,6,6h27.72
		c1.725,0,3.366-0.743,4.506-2.038c1.139-1.295,1.665-3.018,1.445-4.729L388.408,152.732z M366.281,190.499v-31h10.899l3.997,31
		H366.281z"/>
	<path d="M230,244.499c12.131,0,22-9.869,22-22s-9.869-22-22-22c-12.131,0-22,9.869-22,22S217.869,244.499,230,244.499z
		 M230,212.499c5.514,0,10,4.486,10,10s-4.486,10-10,10s-10-4.486-10-10S224.486,212.499,230,212.499z"/>
</g>
</svg>