<?xml version="1.0" encoding="utf-8"?>

<!DOCTYPE svg PUBLIC "-//W3C//DTD SVG 1.1//EN" "http://www.w3.org/Graphics/SVG/1.1/DTD/svg11.dtd">
<!-- Uploaded to: SVG Repo, www.svgrepo.com, Generator: SVG Repo Mixer Tools -->
<svg version="1.1" id="Layer_1" xmlns="http://www.w3.org/2000/svg" xmlns:xlink="http://www.w3.org/1999/xlink" 
	 width="800px" height="800px" viewBox="0 0 24 24" enable-background="new 0 0 24 24" xml:space="preserve">
<path fill="#FAFAFA" d="M20,20H4c-1.1,0-2-0.9-2-2V6c0-1.1,0.9-2,2-2h16c1.1,0,2,0.9,2,2v12C22,19.1,21.1,20,20,20z"/>
<path id="Wave" fill="#F57C00" d="M22,13v5c0,1.1-0.9,2-2,2H9C9,20,18,20,22,13z"/>
<path opacity="0.12" fill="#020202" d="M20,4H4C2.9,4,2,4.9,2,6v12c0,1.1,0.9,2,2,2h16c1.1,0,2-0.9,2-2V6C22,4.9,21.1,4,20,4z
	 M21,18c0,0.6-0.4,1-1,1H4c-0.6,0-1-0.4-1-1V6c0-0.6,0.4-1,1-1h16c0.6,0,1,0.4,1,1V18z"/>
<path fill="#424242" d="M15,13H9c-0.6,0-1-0.4-1-1v0c0-0.6,0.4-1,1-1h6c0.6,0,1,0.4,1,1v0C16,12.6,15.6,13,15,13z"/>
</svg>