<?xml version="1.0" encoding="utf-8"?>
<!-- Uploaded to: SVG Repo, www.svgrepo.com, Generator: SVG Repo Mixer Tools -->
<svg width="800px" height="800px" viewBox="0 0 1024 1024" fill="#000000" class="icon"  version="1.1" xmlns="http://www.w3.org/2000/svg"><path d="M629.6 1016H167.2c-12.8 0-24-10.4-24-24V100.8c0-24.8 9.6-48.8 27.2-66.4C188 17.6 212 8 236.8 8h549.6c52 0 93.6 42.4 93.6 93.6v891.2c0 12.8-10.4 24-24 24H629.6z m203.2-47.2V101.6c0-25.6-20.8-46.4-46.4-46.4H653.6v913.6h179.2z m-235.2 0V55.2H236.8c-25.6 0-45.6 20.8-46.4 45.6V968h407.2z m79.2-225.6V274.4h48v468.8h-48z m-142.4 0V274.4h48v468.8h-48zM273.6 620.8c-12.8 0-24-10.4-24-24V369.6c0-12.8 10.4-24 24-24h209.6c12.8 0 24 10.4 24 24v227.2c0 12.8-10.4 24-24 24H273.6z m186.4-48v-19.2H297.6v19.2h162.4z m0-67.2v-112h-55.2v52.8h-48v-52.8h-59.2v112.8h162.4z" fill="" /></svg>